<svg width="58" height="38" viewBox="0 0 58 38" fill="none" xmlns="http://www.w3.org/2000/svg">
<path d="M3 16.5C1.61929 16.5 0.5 17.6193 0.5 19C0.5 20.3807 1.61929 21.5 3 21.5V16.5ZM56.7678 20.7678C57.7441 19.7915 57.7441 18.2085 56.7678 17.2322L40.8579 1.32233C39.8816 0.34602 38.2986 0.34602 37.3223 1.32233C36.346 2.29864 36.346 3.88155 37.3223 4.85786L51.4645 19L37.3223 33.1421C36.346 34.1184 36.346 35.7014 37.3223 36.6777C38.2986 37.654 39.8816 37.654 40.8579 36.6777L56.7678 20.7678ZM3 21.5H55V16.5H3V21.5Z" fill="#E8C551"/>
</svg>
