<svg width="12" height="12" viewBox="0 0 12 12" fill="none" xmlns="http://www.w3.org/2000/svg">
<path fill-rule="evenodd" clip-rule="evenodd" d="M6.33625 12C9.42523 12 11.9293 9.31371 11.9293 6C11.9293 2.68629 9.42523 0 6.33625 0C3.24727 0 0.743164 2.68629 0.743164 6C0.743164 9.31371 3.24727 12 6.33625 12ZM9.88663 5.64645L6.70465 2.46447C6.50939 2.2692 6.19281 2.2692 5.99754 2.46447C5.80228 2.65973 5.80228 2.97631 5.99754 3.17157L8.32597 5.5H3.14098C2.86484 5.5 2.64098 5.72386 2.64098 6C2.64098 6.27614 2.86484 6.5 3.14098 6.5H8.32597L5.99754 8.82843C5.80228 9.02369 5.80228 9.34027 5.99754 9.53553C6.19281 9.7308 6.50939 9.7308 6.70465 9.53553L9.88663 6.35355C10.0819 6.15829 10.0819 5.84171 9.88663 5.64645Z" fill="#3A1858"/>
</svg>
